<svg width="171" height="144" viewBox="0 0 171 144" fill="none" xmlns="http://www.w3.org/2000/svg">
<path d="M24.9375 14.0234C24.9375 13.8203 24.9062 13.638 24.8438 13.4766C24.7865 13.3099 24.6771 13.1589 24.5156 13.0234C24.3542 12.8828 24.1276 12.7448 23.8359 12.6094C23.5443 12.474 23.1667 12.3333 22.7031 12.1875C22.1875 12.0208 21.6979 11.8333 21.2344 11.625C20.776 11.4167 20.3698 11.1745 20.0156 10.8984C19.6667 10.6172 19.3906 10.2917 19.1875 9.92188C18.9896 9.55208 18.8906 9.1224 18.8906 8.63281C18.8906 8.15885 18.9948 7.72917 19.2031 7.34375C19.4115 6.95312 19.7031 6.61979 20.0781 6.34375C20.4531 6.0625 20.8958 5.84635 21.4062 5.69531C21.9219 5.54427 22.487 5.46875 23.1016 5.46875C23.9401 5.46875 24.6719 5.61979 25.2969 5.92188C25.9219 6.22396 26.4062 6.63802 26.75 7.16406C27.099 7.6901 27.2734 8.29167 27.2734 8.96875H24.9453C24.9453 8.63542 24.875 8.34375 24.7344 8.09375C24.599 7.83854 24.3906 7.63802 24.1094 7.49219C23.8333 7.34635 23.4844 7.27344 23.0625 7.27344C22.6562 7.27344 22.3177 7.33594 22.0469 7.46094C21.776 7.58073 21.5729 7.74479 21.4375 7.95312C21.3021 8.15625 21.2344 8.38542 21.2344 8.64062C21.2344 8.83333 21.2812 9.00781 21.375 9.16406C21.474 9.32031 21.6198 9.46615 21.8125 9.60156C22.0052 9.73698 22.2422 9.86458 22.5234 9.98438C22.8047 10.1042 23.1302 10.2214 23.5 10.3359C24.1198 10.5234 24.6641 10.7344 25.1328 10.9688C25.6068 11.2031 26.0026 11.4661 26.3203 11.7578C26.638 12.0495 26.8776 12.3802 27.0391 12.75C27.2005 13.1198 27.2812 13.5391 27.2812 14.0078C27.2812 14.5026 27.1849 14.9453 26.9922 15.3359C26.7995 15.7266 26.5208 16.0573 26.1562 16.3281C25.7917 16.599 25.3568 16.8047 24.8516 16.9453C24.3464 17.0859 23.7812 17.1562 23.1562 17.1562C22.5938 17.1562 22.0391 17.0833 21.4922 16.9375C20.9453 16.7865 20.4479 16.5599 20 16.2578C19.5573 15.9557 19.2031 15.5703 18.9375 15.1016C18.6719 14.6328 18.5391 14.0781 18.5391 13.4375H20.8906C20.8906 13.7917 20.9453 14.0911 21.0547 14.3359C21.1641 14.5807 21.3177 14.7786 21.5156 14.9297C21.7188 15.0807 21.9583 15.1901 22.2344 15.2578C22.5156 15.3255 22.8229 15.3594 23.1562 15.3594C23.5625 15.3594 23.8958 15.3021 24.1562 15.1875C24.4219 15.0729 24.6172 14.9141 24.7422 14.7109C24.8724 14.5078 24.9375 14.2786 24.9375 14.0234ZM32.625 17.1562C31.9688 17.1562 31.3802 17.0521 30.8594 16.8438C30.3385 16.6302 29.8958 16.3359 29.5312 15.9609C29.1719 15.5859 28.8958 15.151 28.7031 14.6562C28.5104 14.1562 28.4141 13.625 28.4141 13.0625V12.75C28.4141 12.1094 28.5052 11.5234 28.6875 10.9922C28.8698 10.4609 29.1302 10 29.4688 9.60938C29.8125 9.21875 30.2292 8.91927 30.7188 8.71094C31.2083 8.4974 31.7604 8.39062 32.375 8.39062C32.974 8.39062 33.5052 8.48958 33.9688 8.6875C34.4323 8.88542 34.8203 9.16667 35.1328 9.53125C35.4505 9.89583 35.6901 10.3333 35.8516 10.8438C36.013 11.349 36.0938 11.9115 36.0938 12.5312V13.4688H29.375V11.9688H33.8828V11.7969C33.8828 11.4844 33.8255 11.2057 33.7109 10.9609C33.6016 10.7109 33.4349 10.513 33.2109 10.3672C32.987 10.2214 32.7005 10.1484 32.3516 10.1484C32.0547 10.1484 31.7995 10.2135 31.5859 10.3438C31.3724 10.474 31.1979 10.6562 31.0625 10.8906C30.9323 11.125 30.8333 11.401 30.7656 11.7188C30.7031 12.0312 30.6719 12.375 30.6719 12.75V13.0625C30.6719 13.401 30.7188 13.7135 30.8125 14C30.9115 14.2865 31.0495 14.5339 31.2266 14.7422C31.4089 14.9505 31.6276 15.112 31.8828 15.2266C32.1432 15.3411 32.4375 15.3984 32.7656 15.3984C33.1719 15.3984 33.5495 15.3203 33.8984 15.1641C34.2526 15.0026 34.5573 14.7604 34.8125 14.4375L35.9062 15.625C35.7292 15.8802 35.487 16.125 35.1797 16.3594C34.8776 16.5938 34.513 16.7865 34.0859 16.9375C33.6589 17.0833 33.1719 17.1562 32.625 17.1562ZM41.5156 8.54688V10.1406H36.5938V8.54688H41.5156ZM37.8125 6.46094H40.0625V14.4531C40.0625 14.6979 40.0938 14.8854 40.1562 15.0156C40.224 15.1458 40.3229 15.237 40.4531 15.2891C40.5833 15.3359 40.7474 15.3594 40.9453 15.3594C41.0859 15.3594 41.2109 15.3542 41.3203 15.3438C41.4349 15.3281 41.5312 15.3125 41.6094 15.2969L41.6172 16.9531C41.4245 17.0156 41.2161 17.0651 40.9922 17.1016C40.7682 17.138 40.5208 17.1562 40.25 17.1562C39.7552 17.1562 39.3229 17.0755 38.9531 16.9141C38.5885 16.7474 38.3073 16.4818 38.1094 16.1172C37.9115 15.7526 37.8125 15.2734 37.8125 14.6797V6.46094ZM47.7969 14.9766V8.54688H50.0469V17H47.9297L47.7969 14.9766ZM48.0469 13.2422L48.7109 13.2266C48.7109 13.7891 48.6458 14.3125 48.5156 14.7969C48.3854 15.276 48.1901 15.6927 47.9297 16.0469C47.6693 16.3958 47.3411 16.6693 46.9453 16.8672C46.5495 17.0599 46.0833 17.1562 45.5469 17.1562C45.1354 17.1562 44.7552 17.099 44.4062 16.9844C44.0625 16.8646 43.7656 16.6797 43.5156 16.4297C43.2708 16.1745 43.0781 15.849 42.9375 15.4531C42.8021 15.0521 42.7344 14.5703 42.7344 14.0078V8.54688H44.9844V14.0234C44.9844 14.2734 45.013 14.4844 45.0703 14.6562C45.1328 14.8281 45.2188 14.9688 45.3281 15.0781C45.4375 15.1875 45.5651 15.2656 45.7109 15.3125C45.862 15.3594 46.0286 15.3828 46.2109 15.3828C46.6745 15.3828 47.0391 15.2891 47.3047 15.1016C47.5755 14.9141 47.7656 14.6589 47.875 14.3359C47.9896 14.0078 48.0469 13.6432 48.0469 13.2422ZM54.0156 10.1719V20.25H51.7656V8.54688H53.8516L54.0156 10.1719ZM59.3672 12.6797V12.8438C59.3672 13.4583 59.2943 14.0286 59.1484 14.5547C59.0078 15.0807 58.7995 15.5391 58.5234 15.9297C58.2474 16.3151 57.9036 16.6172 57.4922 16.8359C57.0859 17.0495 56.6172 17.1562 56.0859 17.1562C55.5703 17.1562 55.1224 17.0521 54.7422 16.8438C54.362 16.6354 54.0417 16.3438 53.7812 15.9688C53.526 15.5885 53.3203 15.1484 53.1641 14.6484C53.0078 14.1484 52.888 13.612 52.8047 13.0391V12.6094C52.888 11.9948 53.0078 11.4323 53.1641 10.9219C53.3203 10.4062 53.526 9.96094 53.7812 9.58594C54.0417 9.20573 54.3594 8.91146 54.7344 8.70312C55.1146 8.49479 55.5599 8.39062 56.0703 8.39062C56.6068 8.39062 57.0781 8.49219 57.4844 8.69531C57.8958 8.89844 58.2396 9.1901 58.5156 9.57031C58.7969 9.95052 59.0078 10.4036 59.1484 10.9297C59.2943 11.4557 59.3672 12.0391 59.3672 12.6797ZM57.1094 12.8438V12.6797C57.1094 12.3203 57.0781 11.9896 57.0156 11.6875C56.9583 11.3802 56.8646 11.112 56.7344 10.8828C56.6094 10.6536 56.4427 10.4766 56.2344 10.3516C56.0312 10.2214 55.7839 10.1562 55.4922 10.1562C55.1849 10.1562 54.9219 10.2057 54.7031 10.3047C54.4896 10.4036 54.3151 10.5469 54.1797 10.7344C54.0443 10.9219 53.9427 11.1458 53.875 11.4062C53.8073 11.6667 53.7656 11.9609 53.75 12.2891V13.375C53.776 13.7604 53.849 14.1068 53.9688 14.4141C54.0885 14.7161 54.2734 14.9557 54.5234 15.1328C54.7734 15.3099 55.1016 15.3984 55.5078 15.3984C55.8047 15.3984 56.0547 15.3333 56.2578 15.2031C56.4609 15.0677 56.625 14.8828 56.75 14.6484C56.8802 14.4141 56.9714 14.1432 57.0234 13.8359C57.0807 13.5286 57.1094 13.1979 57.1094 12.8438ZM73.9062 11.0547V15.5625C73.7292 15.776 73.4557 16.0078 73.0859 16.2578C72.7161 16.5026 72.2396 16.7135 71.6562 16.8906C71.0729 17.0677 70.3672 17.1562 69.5391 17.1562C68.8047 17.1562 68.1354 17.0365 67.5312 16.7969C66.9271 16.5521 66.4062 16.1953 65.9688 15.7266C65.5365 15.2578 65.2031 14.6849 64.9688 14.0078C64.7344 13.3255 64.6172 12.5469 64.6172 11.6719V10.9609C64.6172 10.0859 64.7292 9.30729 64.9531 8.625C65.1823 7.94271 65.5078 7.36719 65.9297 6.89844C66.3516 6.42969 66.8542 6.07292 67.4375 5.82812C68.0208 5.58333 68.6693 5.46094 69.3828 5.46094C70.3724 5.46094 71.1849 5.6224 71.8203 5.94531C72.4557 6.26302 72.9401 6.70573 73.2734 7.27344C73.612 7.83594 73.8203 8.48177 73.8984 9.21094H71.625C71.5677 8.82552 71.4583 8.48958 71.2969 8.20312C71.1354 7.91667 70.9036 7.69271 70.6016 7.53125C70.3047 7.36979 69.9193 7.28906 69.4453 7.28906C69.0547 7.28906 68.7057 7.36979 68.3984 7.53125C68.0964 7.6875 67.8411 7.91927 67.6328 8.22656C67.4245 8.53385 67.2656 8.91406 67.1562 9.36719C67.0469 9.82031 66.9922 10.3464 66.9922 10.9453V11.6719C66.9922 12.2656 67.0495 12.7917 67.1641 13.25C67.2786 13.7031 67.4479 14.0859 67.6719 14.3984C67.901 14.7057 68.1823 14.9375 68.5156 15.0938C68.849 15.25 69.237 15.3281 69.6797 15.3281C70.0495 15.3281 70.3568 15.2969 70.6016 15.2344C70.8516 15.1719 71.0521 15.0964 71.2031 15.0078C71.3594 14.9141 71.4792 14.8255 71.5625 14.7422V12.7266H69.4219V11.0547H73.9062ZM77.9062 10.3906V17H75.6562V8.54688H77.7734L77.9062 10.3906ZM80.4531 8.49219L80.4141 10.5781C80.3047 10.5625 80.1719 10.5495 80.0156 10.5391C79.8646 10.5234 79.7266 10.5156 79.6016 10.5156C79.2839 10.5156 79.0078 10.5573 78.7734 10.6406C78.5443 10.7188 78.3516 10.8359 78.1953 10.9922C78.0443 11.1484 77.9297 11.3385 77.8516 11.5625C77.7786 11.7865 77.737 12.0417 77.7266 12.3281L77.2734 12.1875C77.2734 11.6406 77.3281 11.138 77.4375 10.6797C77.5469 10.2161 77.7057 9.8125 77.9141 9.46875C78.1276 9.125 78.388 8.85938 78.6953 8.67188C79.0026 8.48438 79.3542 8.39062 79.75 8.39062C79.875 8.39062 80.0026 8.40104 80.1328 8.42188C80.263 8.4375 80.3698 8.46094 80.4531 8.49219ZM85.8125 15.0938V11.3281C85.8125 11.0573 85.7682 10.8255 85.6797 10.6328C85.5911 10.4349 85.4531 10.2812 85.2656 10.1719C85.0833 10.0625 84.8464 10.0078 84.5547 10.0078C84.3047 10.0078 84.0885 10.0521 83.9062 10.1406C83.724 10.224 83.5833 10.3464 83.4844 10.5078C83.3854 10.6641 83.3359 10.849 83.3359 11.0625H81.0859C81.0859 10.7031 81.1693 10.362 81.3359 10.0391C81.5026 9.71615 81.7448 9.43229 82.0625 9.1875C82.3802 8.9375 82.7578 8.74219 83.1953 8.60156C83.638 8.46094 84.1328 8.39062 84.6797 8.39062C85.3359 8.39062 85.9193 8.5 86.4297 8.71875C86.9401 8.9375 87.3411 9.26562 87.6328 9.70312C87.9297 10.1406 88.0781 10.6875 88.0781 11.3438V14.9609C88.0781 15.4245 88.1068 15.8047 88.1641 16.1016C88.2214 16.3932 88.3047 16.6484 88.4141 16.8672V17H86.1406C86.0312 16.7708 85.9479 16.4844 85.8906 16.1406C85.8385 15.7917 85.8125 15.4427 85.8125 15.0938ZM86.1094 11.8516L86.125 13.125H84.8672C84.5703 13.125 84.3125 13.1589 84.0938 13.2266C83.875 13.2943 83.6953 13.3906 83.5547 13.5156C83.4141 13.6354 83.3099 13.776 83.2422 13.9375C83.1797 14.099 83.1484 14.276 83.1484 14.4688C83.1484 14.6615 83.1927 14.8359 83.2812 14.9922C83.3698 15.1432 83.4974 15.263 83.6641 15.3516C83.8307 15.4349 84.026 15.4766 84.25 15.4766C84.5885 15.4766 84.8828 15.4089 85.1328 15.2734C85.3828 15.138 85.5755 14.9714 85.7109 14.7734C85.8516 14.5755 85.9245 14.388 85.9297 14.2109L86.5234 15.1641C86.4401 15.3776 86.3255 15.599 86.1797 15.8281C86.0391 16.0573 85.8594 16.2734 85.6406 16.4766C85.4219 16.6745 85.1589 16.8385 84.8516 16.9688C84.5443 17.0938 84.1797 17.1562 83.7578 17.1562C83.2214 17.1562 82.7344 17.0495 82.2969 16.8359C81.8646 16.6172 81.5208 16.3177 81.2656 15.9375C81.0156 15.5521 80.8906 15.1146 80.8906 14.625C80.8906 14.1823 80.974 13.7891 81.1406 13.4453C81.3073 13.1016 81.5521 12.8125 81.875 12.5781C82.2031 12.3385 82.612 12.1589 83.1016 12.0391C83.5911 11.9141 84.1589 11.8516 84.8047 11.8516H86.1094ZM92.5625 15.3594L94.4375 8.54688H96.7891L93.9375 17H92.5156L92.5625 15.3594ZM91.2734 8.54688L93.1562 15.3672L93.1953 17H91.7656L88.9141 8.54688H91.2734ZM101.578 17.1562C100.922 17.1562 100.333 17.0521 99.8125 16.8438C99.2917 16.6302 98.849 16.3359 98.4844 15.9609C98.125 15.5859 97.849 15.151 97.6562 14.6562C97.4635 14.1562 97.3672 13.625 97.3672 13.0625V12.75C97.3672 12.1094 97.4583 11.5234 97.6406 10.9922C97.8229 10.4609 98.0833 10 98.4219 9.60938C98.7656 9.21875 99.1823 8.91927 99.6719 8.71094C100.161 8.4974 100.714 8.39062 101.328 8.39062C101.927 8.39062 102.458 8.48958 102.922 8.6875C103.385 8.88542 103.773 9.16667 104.086 9.53125C104.404 9.89583 104.643 10.3333 104.805 10.8438C104.966 11.349 105.047 11.9115 105.047 12.5312V13.4688H98.3281V11.9688H102.836V11.7969C102.836 11.4844 102.779 11.2057 102.664 10.9609C102.555 10.7109 102.388 10.513 102.164 10.3672C101.94 10.2214 101.654 10.1484 101.305 10.1484C101.008 10.1484 100.753 10.2135 100.539 10.3438C100.326 10.474 100.151 10.6562 100.016 10.8906C99.8854 11.125 99.7865 11.401 99.7188 11.7188C99.6562 12.0312 99.625 12.375 99.625 12.75V13.0625C99.625 13.401 99.6719 13.7135 99.7656 14C99.8646 14.2865 100.003 14.5339 100.18 14.7422C100.362 14.9505 100.581 15.112 100.836 15.2266C101.096 15.3411 101.391 15.3984 101.719 15.3984C102.125 15.3984 102.503 15.3203 102.852 15.1641C103.206 15.0026 103.51 14.7604 103.766 14.4375L104.859 15.625C104.682 15.8802 104.44 16.125 104.133 16.3594C103.831 16.5938 103.466 16.7865 103.039 16.9375C102.612 17.0833 102.125 17.1562 101.578 17.1562ZM116.375 14.0234C116.375 13.8203 116.344 13.638 116.281 13.4766C116.224 13.3099 116.115 13.1589 115.953 13.0234C115.792 12.8828 115.565 12.7448 115.273 12.6094C114.982 12.474 114.604 12.3333 114.141 12.1875C113.625 12.0208 113.135 11.8333 112.672 11.625C112.214 11.4167 111.807 11.1745 111.453 10.8984C111.104 10.6172 110.828 10.2917 110.625 9.92188C110.427 9.55208 110.328 9.1224 110.328 8.63281C110.328 8.15885 110.432 7.72917 110.641 7.34375C110.849 6.95312 111.141 6.61979 111.516 6.34375C111.891 6.0625 112.333 5.84635 112.844 5.69531C113.359 5.54427 113.924 5.46875 114.539 5.46875C115.378 5.46875 116.109 5.61979 116.734 5.92188C117.359 6.22396 117.844 6.63802 118.188 7.16406C118.536 7.6901 118.711 8.29167 118.711 8.96875H116.383C116.383 8.63542 116.312 8.34375 116.172 8.09375C116.036 7.83854 115.828 7.63802 115.547 7.49219C115.271 7.34635 114.922 7.27344 114.5 7.27344C114.094 7.27344 113.755 7.33594 113.484 7.46094C113.214 7.58073 113.01 7.74479 112.875 7.95312C112.74 8.15625 112.672 8.38542 112.672 8.64062C112.672 8.83333 112.719 9.00781 112.812 9.16406C112.911 9.32031 113.057 9.46615 113.25 9.60156C113.443 9.73698 113.68 9.86458 113.961 9.98438C114.242 10.1042 114.568 10.2214 114.938 10.3359C115.557 10.5234 116.102 10.7344 116.57 10.9688C117.044 11.2031 117.44 11.4661 117.758 11.7578C118.076 12.0495 118.315 12.3802 118.477 12.75C118.638 13.1198 118.719 13.5391 118.719 14.0078C118.719 14.5026 118.622 14.9453 118.43 15.3359C118.237 15.7266 117.958 16.0573 117.594 16.3281C117.229 16.599 116.794 16.8047 116.289 16.9453C115.784 17.0859 115.219 17.1562 114.594 17.1562C114.031 17.1562 113.477 17.0833 112.93 16.9375C112.383 16.7865 111.885 16.5599 111.438 16.2578C110.995 15.9557 110.641 15.5703 110.375 15.1016C110.109 14.6328 109.977 14.0781 109.977 13.4375H112.328C112.328 13.7917 112.383 14.0911 112.492 14.3359C112.602 14.5807 112.755 14.7786 112.953 14.9297C113.156 15.0807 113.396 15.1901 113.672 15.2578C113.953 15.3255 114.26 15.3594 114.594 15.3594C115 15.3594 115.333 15.3021 115.594 15.1875C115.859 15.0729 116.055 14.9141 116.18 14.7109C116.31 14.5078 116.375 14.2786 116.375 14.0234ZM122.547 8.54688V17H120.289V8.54688H122.547ZM120.148 6.34375C120.148 6.01562 120.263 5.74479 120.492 5.53125C120.721 5.31771 121.029 5.21094 121.414 5.21094C121.794 5.21094 122.099 5.31771 122.328 5.53125C122.562 5.74479 122.68 6.01562 122.68 6.34375C122.68 6.67188 122.562 6.94271 122.328 7.15625C122.099 7.36979 121.794 7.47656 121.414 7.47656C121.029 7.47656 120.721 7.36979 120.492 7.15625C120.263 6.94271 120.148 6.67188 120.148 6.34375ZM128.547 8.54688V10.1406H123.625V8.54688H128.547ZM124.844 6.46094H127.094V14.4531C127.094 14.6979 127.125 14.8854 127.188 15.0156C127.255 15.1458 127.354 15.237 127.484 15.2891C127.615 15.3359 127.779 15.3594 127.977 15.3594C128.117 15.3594 128.242 15.3542 128.352 15.3438C128.466 15.3281 128.562 15.3125 128.641 15.2969L128.648 16.9531C128.456 17.0156 128.247 17.0651 128.023 17.1016C127.799 17.138 127.552 17.1562 127.281 17.1562C126.786 17.1562 126.354 17.0755 125.984 16.9141C125.62 16.7474 125.339 16.4818 125.141 16.1172C124.943 15.7526 124.844 15.2734 124.844 14.6797V6.46094ZM133.719 17.1562C133.062 17.1562 132.474 17.0521 131.953 16.8438C131.432 16.6302 130.99 16.3359 130.625 15.9609C130.266 15.5859 129.99 15.151 129.797 14.6562C129.604 14.1562 129.508 13.625 129.508 13.0625V12.75C129.508 12.1094 129.599 11.5234 129.781 10.9922C129.964 10.4609 130.224 10 130.562 9.60938C130.906 9.21875 131.323 8.91927 131.812 8.71094C132.302 8.4974 132.854 8.39062 133.469 8.39062C134.068 8.39062 134.599 8.48958 135.062 8.6875C135.526 8.88542 135.914 9.16667 136.227 9.53125C136.544 9.89583 136.784 10.3333 136.945 10.8438C137.107 11.349 137.188 11.9115 137.188 12.5312V13.4688H130.469V11.9688H134.977V11.7969C134.977 11.4844 134.919 11.2057 134.805 10.9609C134.695 10.7109 134.529 10.513 134.305 10.3672C134.081 10.2214 133.794 10.1484 133.445 10.1484C133.148 10.1484 132.893 10.2135 132.68 10.3438C132.466 10.474 132.292 10.6562 132.156 10.8906C132.026 11.125 131.927 11.401 131.859 11.7188C131.797 12.0312 131.766 12.375 131.766 12.75V13.0625C131.766 13.401 131.812 13.7135 131.906 14C132.005 14.2865 132.143 14.5339 132.32 14.7422C132.503 14.9505 132.721 15.112 132.977 15.2266C133.237 15.3411 133.531 15.3984 133.859 15.3984C134.266 15.3984 134.643 15.3203 134.992 15.1641C135.346 15.0026 135.651 14.7604 135.906 14.4375L137 15.625C136.823 15.8802 136.581 16.125 136.273 16.3594C135.971 16.5938 135.607 16.7865 135.18 16.9375C134.753 17.0833 134.266 17.1562 133.719 17.1562Z" fill="#007548"/>
<path d="M28.0781 50.9531V51.6719C28.0781 52.526 27.9714 53.2917 27.7578 53.9688C27.5443 54.6458 27.237 55.2214 26.8359 55.6953C26.4349 56.1693 25.9531 56.5312 25.3906 56.7812C24.8333 57.0312 24.2083 57.1562 23.5156 57.1562C22.8438 57.1562 22.2266 57.0312 21.6641 56.7812C21.1068 56.5312 20.6224 56.1693 20.2109 55.6953C19.8047 55.2214 19.4896 54.6458 19.2656 53.9688C19.0417 53.2917 18.9297 52.526 18.9297 51.6719V50.9531C18.9297 50.099 19.0391 49.3359 19.2578 48.6641C19.4818 47.987 19.7969 47.4115 20.2031 46.9375C20.6094 46.4583 21.0911 46.0938 21.6484 45.8438C22.2109 45.5938 22.8281 45.4688 23.5 45.4688C24.1927 45.4688 24.8177 45.5938 25.375 45.8438C25.9375 46.0938 26.4193 46.4583 26.8203 46.9375C27.2266 47.4115 27.5365 47.987 27.75 48.6641C27.9688 49.3359 28.0781 50.099 28.0781 50.9531ZM26.5859 51.6719V50.9375C26.5859 50.2604 26.5156 49.6615 26.375 49.1406C26.2396 48.6198 26.0391 48.1823 25.7734 47.8281C25.5078 47.474 25.1823 47.2057 24.7969 47.0234C24.4167 46.8411 23.9844 46.75 23.5 46.75C23.0312 46.75 22.6068 46.8411 22.2266 47.0234C21.8516 47.2057 21.5286 47.474 21.2578 47.8281C20.9922 48.1823 20.7865 48.6198 20.6406 49.1406C20.4948 49.6615 20.4219 50.2604 20.4219 50.9375V51.6719C20.4219 52.3542 20.4948 52.9583 20.6406 53.4844C20.7865 54.0052 20.9948 54.4453 21.2656 54.8047C21.5417 55.1589 21.8672 55.4271 22.2422 55.6094C22.6224 55.7917 23.0469 55.8828 23.5156 55.8828C24.0052 55.8828 24.4401 55.7917 24.8203 55.6094C25.2005 55.4271 25.5208 55.1589 25.7812 54.8047C26.0469 54.4453 26.2474 54.0052 26.3828 53.4844C26.5182 52.9583 26.5859 52.3542 26.5859 51.6719ZM32.2578 55.5L34.4297 48.5469H35.3828L35.1953 49.9297L32.9844 57H32.0547L32.2578 55.5ZM30.7969 48.5469L32.6484 55.5781L32.7812 57H31.8047L29.3516 48.5469H30.7969ZM37.4609 55.5234L39.2266 48.5469H40.6641L38.2109 57H37.2422L37.4609 55.5234ZM35.5938 48.5469L37.7188 55.3828L37.9609 57H37.0391L34.7656 49.9141L34.5781 48.5469H35.5938ZM43.5938 50.3516V57H42.1484V48.5469H43.5156L43.5938 50.3516ZM43.25 52.4531L42.6484 52.4297C42.6536 51.8516 42.7396 51.3177 42.9062 50.8281C43.0729 50.3333 43.3073 49.9036 43.6094 49.5391C43.9115 49.1745 44.2708 48.8932 44.6875 48.6953C45.1094 48.4922 45.5755 48.3906 46.0859 48.3906C46.5026 48.3906 46.8776 48.4479 47.2109 48.5625C47.5443 48.6719 47.8281 48.849 48.0625 49.0938C48.3021 49.3385 48.4844 49.6562 48.6094 50.0469C48.7344 50.4323 48.7969 50.9036 48.7969 51.4609V57H47.3438V51.4453C47.3438 51.0026 47.2786 50.6484 47.1484 50.3828C47.0182 50.112 46.8281 49.9167 46.5781 49.7969C46.3281 49.6719 46.0208 49.6094 45.6562 49.6094C45.2969 49.6094 44.9688 49.6849 44.6719 49.8359C44.3802 49.987 44.1276 50.1953 43.9141 50.4609C43.7057 50.7266 43.5417 51.0312 43.4219 51.375C43.3073 51.7135 43.25 52.0729 43.25 52.4531ZM54.5 57.1562C53.9115 57.1562 53.3776 57.0573 52.8984 56.8594C52.4245 56.6562 52.0156 56.3724 51.6719 56.0078C51.3333 55.6432 51.0729 55.2109 50.8906 54.7109C50.7083 54.2109 50.6172 53.6641 50.6172 53.0703V52.7422C50.6172 52.0547 50.7188 51.4427 50.9219 50.9062C51.125 50.3646 51.401 49.9062 51.75 49.5312C52.099 49.1562 52.4948 48.8724 52.9375 48.6797C53.3802 48.487 53.8385 48.3906 54.3125 48.3906C54.9167 48.3906 55.4375 48.4948 55.875 48.7031C56.3177 48.9115 56.6797 49.2031 56.9609 49.5781C57.2422 49.9479 57.4505 50.3854 57.5859 50.8906C57.7214 51.3906 57.7891 51.9375 57.7891 52.5312V53.1797H51.4766V52H56.3438V51.8906C56.3229 51.5156 56.2448 51.151 56.1094 50.7969C55.9792 50.4427 55.7708 50.151 55.4844 49.9219C55.1979 49.6927 54.8073 49.5781 54.3125 49.5781C53.9844 49.5781 53.6823 49.6484 53.4062 49.7891C53.1302 49.9245 52.8932 50.1276 52.6953 50.3984C52.4974 50.6693 52.3438 51 52.2344 51.3906C52.125 51.7812 52.0703 52.2318 52.0703 52.7422V53.0703C52.0703 53.4714 52.125 53.849 52.2344 54.2031C52.349 54.5521 52.513 54.8594 52.7266 55.125C52.9453 55.3906 53.2083 55.599 53.5156 55.75C53.8281 55.901 54.1823 55.9766 54.5781 55.9766C55.0885 55.9766 55.5208 55.8724 55.875 55.6641C56.2292 55.4557 56.5391 55.1771 56.8047 54.8281L57.6797 55.5234C57.4974 55.7995 57.2656 56.0625 56.9844 56.3125C56.7031 56.5625 56.3568 56.7656 55.9453 56.9219C55.5391 57.0781 55.0573 57.1562 54.5 57.1562ZM60.9219 49.875V57H59.4766V48.5469H60.8828L60.9219 49.875ZM63.5625 48.5L63.5547 49.8438C63.4349 49.8177 63.3203 49.8021 63.2109 49.7969C63.1068 49.7865 62.987 49.7812 62.8516 49.7812C62.5182 49.7812 62.224 49.8333 61.9688 49.9375C61.7135 50.0417 61.4974 50.1875 61.3203 50.375C61.1432 50.5625 61.0026 50.7865 60.8984 51.0469C60.7995 51.3021 60.7344 51.5833 60.7031 51.8906L60.2969 52.125C60.2969 51.6146 60.3464 51.1354 60.4453 50.6875C60.5495 50.2396 60.7083 49.8438 60.9219 49.5C61.1354 49.151 61.4062 48.8802 61.7344 48.6875C62.0677 48.4896 62.4635 48.3906 62.9219 48.3906C63.026 48.3906 63.1458 48.4036 63.2812 48.4297C63.4167 48.4505 63.5104 48.474 63.5625 48.5ZM72.1641 57H69.7891L69.8047 55.7734H72.1641C72.9766 55.7734 73.6536 55.6042 74.1953 55.2656C74.737 54.9219 75.1432 54.4427 75.4141 53.8281C75.6901 53.2083 75.8281 52.4844 75.8281 51.6562V50.9609C75.8281 50.3099 75.75 49.7318 75.5938 49.2266C75.4375 48.7161 75.2083 48.2865 74.9062 47.9375C74.6042 47.5833 74.2344 47.3151 73.7969 47.1328C73.3646 46.9505 72.8672 46.8594 72.3047 46.8594H69.7422V45.625H72.3047C73.0495 45.625 73.7292 45.75 74.3438 46C74.9583 46.2448 75.487 46.6016 75.9297 47.0703C76.3776 47.5339 76.7214 48.0964 76.9609 48.7578C77.2005 49.4141 77.3203 50.1536 77.3203 50.9766V51.6562C77.3203 52.4792 77.2005 53.2214 76.9609 53.8828C76.7214 54.5391 76.375 55.099 75.9219 55.5625C75.474 56.026 74.9323 56.3828 74.2969 56.6328C73.6667 56.8776 72.9557 57 72.1641 57ZM70.5938 45.625V57H69.0859V45.625H70.5938ZM82.875 57.1562C82.2865 57.1562 81.7526 57.0573 81.2734 56.8594C80.7995 56.6562 80.3906 56.3724 80.0469 56.0078C79.7083 55.6432 79.4479 55.2109 79.2656 54.7109C79.0833 54.2109 78.9922 53.6641 78.9922 53.0703V52.7422C78.9922 52.0547 79.0938 51.4427 79.2969 50.9062C79.5 50.3646 79.776 49.9062 80.125 49.5312C80.474 49.1562 80.8698 48.8724 81.3125 48.6797C81.7552 48.487 82.2135 48.3906 82.6875 48.3906C83.2917 48.3906 83.8125 48.4948 84.25 48.7031C84.6927 48.9115 85.0547 49.2031 85.3359 49.5781C85.6172 49.9479 85.8255 50.3854 85.9609 50.8906C86.0964 51.3906 86.1641 51.9375 86.1641 52.5312V53.1797H79.8516V52H84.7188V51.8906C84.6979 51.5156 84.6198 51.151 84.4844 50.7969C84.3542 50.4427 84.1458 50.151 83.8594 49.9219C83.5729 49.6927 83.1823 49.5781 82.6875 49.5781C82.3594 49.5781 82.0573 49.6484 81.7812 49.7891C81.5052 49.9245 81.2682 50.1276 81.0703 50.3984C80.8724 50.6693 80.7188 51 80.6094 51.3906C80.5 51.7812 80.4453 52.2318 80.4453 52.7422V53.0703C80.4453 53.4714 80.5 53.849 80.6094 54.2031C80.724 54.5521 80.888 54.8594 81.1016 55.125C81.3203 55.3906 81.5833 55.599 81.8906 55.75C82.2031 55.901 82.5573 55.9766 82.9531 55.9766C83.4635 55.9766 83.8958 55.8724 84.25 55.6641C84.6042 55.4557 84.9141 55.1771 85.1797 54.8281L86.0547 55.5234C85.8724 55.7995 85.6406 56.0625 85.3594 56.3125C85.0781 56.5625 84.7318 56.7656 84.3203 56.9219C83.9141 57.0781 83.4323 57.1562 82.875 57.1562ZM91.3906 48.5469V49.6562H86.8203V48.5469H91.3906ZM88.3672 46.4922H89.8125V54.9062C89.8125 55.1927 89.8568 55.4089 89.9453 55.5547C90.0339 55.7005 90.1484 55.7969 90.2891 55.8438C90.4297 55.8906 90.5807 55.9141 90.7422 55.9141C90.862 55.9141 90.987 55.9036 91.1172 55.8828C91.2526 55.8568 91.3542 55.8359 91.4219 55.8203L91.4297 57C91.3151 57.0365 91.1641 57.0703 90.9766 57.1016C90.7943 57.138 90.5729 57.1562 90.3125 57.1562C89.9583 57.1562 89.6328 57.0859 89.3359 56.9453C89.0391 56.8047 88.8021 56.5703 88.625 56.2422C88.4531 55.9089 88.3672 55.4609 88.3672 54.8984V46.4922ZM98.0703 55.5547V51.2031C98.0703 50.8698 98.0026 50.5807 97.8672 50.3359C97.737 50.0859 97.5391 49.8932 97.2734 49.7578C97.0078 49.6224 96.6797 49.5547 96.2891 49.5547C95.9245 49.5547 95.6042 49.6172 95.3281 49.7422C95.0573 49.8672 94.8438 50.0312 94.6875 50.2344C94.5365 50.4375 94.4609 50.6562 94.4609 50.8906H93.0156C93.0156 50.5885 93.0938 50.2891 93.25 49.9922C93.4062 49.6953 93.6302 49.4271 93.9219 49.1875C94.2188 48.9427 94.5729 48.75 94.9844 48.6094C95.401 48.4635 95.8646 48.3906 96.375 48.3906C96.9896 48.3906 97.5312 48.4948 98 48.7031C98.474 48.9115 98.8438 49.2266 99.1094 49.6484C99.3802 50.0651 99.5156 50.5885 99.5156 51.2188V55.1562C99.5156 55.4375 99.5391 55.737 99.5859 56.0547C99.638 56.3724 99.7135 56.6458 99.8125 56.875V57H98.3047C98.2318 56.8333 98.1745 56.612 98.1328 56.3359C98.0911 56.0547 98.0703 55.7943 98.0703 55.5547ZM98.3203 51.875L98.3359 52.8906H96.875C96.4635 52.8906 96.0964 52.9245 95.7734 52.9922C95.4505 53.0547 95.1797 53.151 94.9609 53.2812C94.7422 53.4115 94.5755 53.5755 94.4609 53.7734C94.3464 53.9661 94.2891 54.1927 94.2891 54.4531C94.2891 54.7188 94.349 54.9609 94.4688 55.1797C94.5885 55.3984 94.7682 55.5729 95.0078 55.7031C95.2526 55.8281 95.5521 55.8906 95.9062 55.8906C96.349 55.8906 96.7396 55.7969 97.0781 55.6094C97.4167 55.4219 97.6849 55.1927 97.8828 54.9219C98.0859 54.651 98.1953 54.388 98.2109 54.1328L98.8281 54.8281C98.7917 55.0469 98.6927 55.2891 98.5312 55.5547C98.3698 55.8203 98.1536 56.0755 97.8828 56.3203C97.6172 56.5599 97.2995 56.7604 96.9297 56.9219C96.5651 57.0781 96.1536 57.1562 95.6953 57.1562C95.1224 57.1562 94.6198 57.0443 94.1875 56.8203C93.7604 56.5964 93.4271 56.2969 93.1875 55.9219C92.9531 55.5417 92.8359 55.1172 92.8359 54.6484C92.8359 54.1953 92.9245 53.7969 93.1016 53.4531C93.2786 53.1042 93.5339 52.8151 93.8672 52.5859C94.2005 52.3516 94.6016 52.1745 95.0703 52.0547C95.5391 51.9349 96.0625 51.875 96.6406 51.875H98.3203ZM103.359 48.5469V57H101.906V48.5469H103.359ZM101.797 46.3047C101.797 46.0703 101.867 45.8724 102.008 45.7109C102.154 45.5495 102.367 45.4688 102.648 45.4688C102.924 45.4688 103.135 45.5495 103.281 45.7109C103.432 45.8724 103.508 46.0703 103.508 46.3047C103.508 46.5286 103.432 46.7214 103.281 46.8828C103.135 47.0391 102.924 47.1172 102.648 47.1172C102.367 47.1172 102.154 47.0391 102.008 46.8828C101.867 46.7214 101.797 46.5286 101.797 46.3047ZM107.25 45V57H105.797V45H107.25ZM114.492 54.7578C114.492 54.5495 114.445 54.3568 114.352 54.1797C114.263 53.9974 114.078 53.8333 113.797 53.6875C113.521 53.5365 113.104 53.4062 112.547 53.2969C112.078 53.1979 111.654 53.0807 111.273 52.9453C110.898 52.8099 110.578 52.6458 110.312 52.4531C110.052 52.2604 109.852 52.0339 109.711 51.7734C109.57 51.513 109.5 51.2083 109.5 50.8594C109.5 50.526 109.573 50.2109 109.719 49.9141C109.87 49.6172 110.081 49.3542 110.352 49.125C110.628 48.8958 110.958 48.7161 111.344 48.5859C111.729 48.4557 112.159 48.3906 112.633 48.3906C113.31 48.3906 113.888 48.5104 114.367 48.75C114.846 48.9896 115.214 49.3099 115.469 49.7109C115.724 50.1068 115.852 50.5469 115.852 51.0312H114.406C114.406 50.7969 114.336 50.5703 114.195 50.3516C114.06 50.1276 113.859 49.9427 113.594 49.7969C113.333 49.651 113.013 49.5781 112.633 49.5781C112.232 49.5781 111.906 49.6406 111.656 49.7656C111.411 49.8854 111.232 50.0391 111.117 50.2266C111.008 50.4141 110.953 50.612 110.953 50.8203C110.953 50.9766 110.979 51.1172 111.031 51.2422C111.089 51.362 111.188 51.474 111.328 51.5781C111.469 51.6771 111.667 51.7708 111.922 51.8594C112.177 51.9479 112.503 52.0365 112.898 52.125C113.591 52.2812 114.161 52.4688 114.609 52.6875C115.057 52.9062 115.391 53.1745 115.609 53.4922C115.828 53.8099 115.938 54.1953 115.938 54.6484C115.938 55.0182 115.859 55.3568 115.703 55.6641C115.552 55.9714 115.331 56.237 115.039 56.4609C114.753 56.6797 114.409 56.8516 114.008 56.9766C113.612 57.0964 113.167 57.1562 112.672 57.1562C111.927 57.1562 111.297 57.0234 110.781 56.7578C110.266 56.4922 109.875 56.1484 109.609 55.7266C109.344 55.3047 109.211 54.8594 109.211 54.3906H110.664C110.685 54.7865 110.799 55.1016 111.008 55.3359C111.216 55.5651 111.471 55.7292 111.773 55.8281C112.076 55.9219 112.375 55.9688 112.672 55.9688C113.068 55.9688 113.398 55.9167 113.664 55.8125C113.935 55.7083 114.141 55.5651 114.281 55.3828C114.422 55.2005 114.492 54.9922 114.492 54.7578Z" fill="#6C757D"/>
<path d="M23.375 91.6797H20.4922L20.4766 90.4688H23.0938C23.526 90.4688 23.9036 90.3958 24.2266 90.25C24.5495 90.1042 24.7995 89.8958 24.9766 89.625C25.1589 89.349 25.25 89.0208 25.25 88.6406C25.25 88.224 25.1693 87.8854 25.0078 87.625C24.8516 87.3594 24.6094 87.1667 24.2812 87.0469C23.9583 86.9219 23.5469 86.8594 23.0469 86.8594H20.8281V97H19.3203V85.625H23.0469C23.6302 85.625 24.151 85.6849 24.6094 85.8047C25.0677 85.9193 25.4557 86.1016 25.7734 86.3516C26.0964 86.5964 26.3411 86.9089 26.5078 87.2891C26.6745 87.6693 26.7578 88.125 26.7578 88.6562C26.7578 89.125 26.638 89.5495 26.3984 89.9297C26.1589 90.3047 25.8255 90.612 25.3984 90.8516C24.9766 91.0911 24.4818 91.2448 23.9141 91.3125L23.375 91.6797ZM23.3047 97H19.8984L20.75 95.7734H23.3047C23.7839 95.7734 24.1901 95.6901 24.5234 95.5234C24.862 95.3568 25.1198 95.1224 25.2969 94.8203C25.474 94.513 25.5625 94.151 25.5625 93.7344C25.5625 93.3125 25.487 92.9479 25.3359 92.6406C25.1849 92.3333 24.9479 92.0964 24.625 91.9297C24.3021 91.763 23.8854 91.6797 23.375 91.6797H21.2266L21.2422 90.4688H24.1797L24.5 90.9062C25.0469 90.9531 25.5104 91.1094 25.8906 91.375C26.2708 91.6354 26.5599 91.9688 26.7578 92.375C26.9609 92.7812 27.0625 93.2292 27.0625 93.7188C27.0625 94.4271 26.9062 95.026 26.5938 95.5156C26.2865 96 25.8516 96.3698 25.2891 96.625C24.7266 96.875 24.0651 97 23.3047 97ZM34.2422 95.0469V88.5469H35.6953V97H34.3125L34.2422 95.0469ZM34.5156 93.2656L35.1172 93.25C35.1172 93.8125 35.0573 94.3333 34.9375 94.8125C34.8229 95.2865 34.6354 95.6979 34.375 96.0469C34.1146 96.3958 33.7734 96.6693 33.3516 96.8672C32.9297 97.0599 32.4167 97.1562 31.8125 97.1562C31.401 97.1562 31.0234 97.0964 30.6797 96.9766C30.3411 96.8568 30.0495 96.6719 29.8047 96.4219C29.5599 96.1719 29.3698 95.8464 29.2344 95.4453C29.1042 95.0443 29.0391 94.5625 29.0391 94V88.5469H30.4844V94.0156C30.4844 94.3958 30.526 94.7109 30.6094 94.9609C30.6979 95.2057 30.8151 95.401 30.9609 95.5469C31.112 95.6875 31.2786 95.7865 31.4609 95.8438C31.6484 95.901 31.8411 95.9297 32.0391 95.9297C32.6536 95.9297 33.1406 95.8125 33.5 95.5781C33.8594 95.3385 34.1172 95.0182 34.2734 94.6172C34.4349 94.2109 34.5156 93.7604 34.5156 93.2656ZM39.3438 89.875V97H37.8984V88.5469H39.3047L39.3438 89.875ZM41.9844 88.5L41.9766 89.8438C41.8568 89.8177 41.7422 89.8021 41.6328 89.7969C41.5286 89.7865 41.4089 89.7812 41.2734 89.7812C40.9401 89.7812 40.6458 89.8333 40.3906 89.9375C40.1354 90.0417 39.9193 90.1875 39.7422 90.375C39.5651 90.5625 39.4245 90.7865 39.3203 91.0469C39.2214 91.3021 39.1562 91.5833 39.125 91.8906L38.7188 92.125C38.7188 91.6146 38.7682 91.1354 38.8672 90.6875C38.9714 90.2396 39.1302 89.8438 39.3438 89.5C39.5573 89.151 39.8281 88.8802 40.1562 88.6875C40.4896 88.4896 40.8854 88.3906 41.3438 88.3906C41.4479 88.3906 41.5677 88.4036 41.7031 88.4297C41.8385 88.4505 41.9323 88.474 41.9844 88.5ZM44.8906 88.5469V97H43.4375V88.5469H44.8906ZM43.3281 86.3047C43.3281 86.0703 43.3984 85.8724 43.5391 85.7109C43.6849 85.5495 43.8984 85.4688 44.1797 85.4688C44.4557 85.4688 44.6667 85.5495 44.8125 85.7109C44.9635 85.8724 45.0391 86.0703 45.0391 86.3047C45.0391 86.5286 44.9635 86.7214 44.8125 86.8828C44.6667 87.0391 44.4557 87.1172 44.1797 87.1172C43.8984 87.1172 43.6849 87.0391 43.5391 86.8828C43.3984 86.7214 43.3281 86.5286 43.3281 86.3047ZM50.7188 97.1562C50.1302 97.1562 49.5964 97.0573 49.1172 96.8594C48.6432 96.6562 48.2344 96.3724 47.8906 96.0078C47.5521 95.6432 47.2917 95.2109 47.1094 94.7109C46.9271 94.2109 46.8359 93.6641 46.8359 93.0703V92.7422C46.8359 92.0547 46.9375 91.4427 47.1406 90.9062C47.3438 90.3646 47.6198 89.9062 47.9688 89.5312C48.3177 89.1562 48.7135 88.8724 49.1562 88.6797C49.599 88.487 50.0573 88.3906 50.5312 88.3906C51.1354 88.3906 51.6562 88.4948 52.0938 88.7031C52.5365 88.9115 52.8984 89.2031 53.1797 89.5781C53.4609 89.9479 53.6693 90.3854 53.8047 90.8906C53.9401 91.3906 54.0078 91.9375 54.0078 92.5312V93.1797H47.6953V92H52.5625V91.8906C52.5417 91.5156 52.4635 91.151 52.3281 90.7969C52.1979 90.4427 51.9896 90.151 51.7031 89.9219C51.4167 89.6927 51.026 89.5781 50.5312 89.5781C50.2031 89.5781 49.901 89.6484 49.625 89.7891C49.349 89.9245 49.112 90.1276 48.9141 90.3984C48.7161 90.6693 48.5625 91 48.4531 91.3906C48.3438 91.7812 48.2891 92.2318 48.2891 92.7422V93.0703C48.2891 93.4714 48.3438 93.849 48.4531 94.2031C48.5677 94.5521 48.7318 94.8594 48.9453 95.125C49.1641 95.3906 49.4271 95.599 49.7344 95.75C50.0469 95.901 50.401 95.9766 50.7969 95.9766C51.3073 95.9766 51.7396 95.8724 52.0938 95.6641C52.4479 95.4557 52.7578 95.1771 53.0234 94.8281L53.8984 95.5234C53.7161 95.7995 53.4844 96.0625 53.2031 96.3125C52.9219 96.5625 52.5755 96.7656 52.1641 96.9219C51.7578 97.0781 51.276 97.1562 50.7188 97.1562ZM61.0234 95.3594V85H62.4766V97H61.1484L61.0234 95.3594ZM55.3359 92.8672V92.7031C55.3359 92.0573 55.4141 91.4714 55.5703 90.9453C55.7318 90.4141 55.9583 89.9583 56.25 89.5781C56.5469 89.1979 56.8984 88.9062 57.3047 88.7031C57.7161 88.4948 58.1745 88.3906 58.6797 88.3906C59.2109 88.3906 59.6745 88.4844 60.0703 88.6719C60.4714 88.8542 60.8099 89.1224 61.0859 89.4766C61.3672 89.8255 61.5885 90.2474 61.75 90.7422C61.9115 91.237 62.0234 91.7969 62.0859 92.4219V93.1406C62.0286 93.7604 61.9167 94.3177 61.75 94.8125C61.5885 95.3073 61.3672 95.7292 61.0859 96.0781C60.8099 96.4271 60.4714 96.6953 60.0703 96.8828C59.6693 97.0651 59.2005 97.1562 58.6641 97.1562C58.1693 97.1562 57.7161 97.0495 57.3047 96.8359C56.8984 96.6224 56.5469 96.3229 56.25 95.9375C55.9583 95.5521 55.7318 95.099 55.5703 94.5781C55.4141 94.0521 55.3359 93.4818 55.3359 92.8672ZM56.7891 92.7031V92.8672C56.7891 93.2891 56.8307 93.6849 56.9141 94.0547C57.0026 94.4245 57.138 94.75 57.3203 95.0312C57.5026 95.3125 57.7344 95.5339 58.0156 95.6953C58.2969 95.8516 58.6328 95.9297 59.0234 95.9297C59.5026 95.9297 59.8958 95.8281 60.2031 95.625C60.5156 95.4219 60.7656 95.1536 60.9531 94.8203C61.1406 94.487 61.2865 94.125 61.3906 93.7344V91.8516C61.3281 91.5651 61.237 91.2891 61.1172 91.0234C61.0026 90.7526 60.8516 90.513 60.6641 90.3047C60.4818 90.0911 60.2552 89.9219 59.9844 89.7969C59.7188 89.6719 59.4036 89.6094 59.0391 89.6094C58.6432 89.6094 58.3021 89.6927 58.0156 89.8594C57.7344 90.0208 57.5026 90.2448 57.3203 90.5312C57.138 90.8125 57.0026 91.1406 56.9141 91.5156C56.8307 91.8854 56.7891 92.2812 56.7891 92.7031ZM73.1094 92.5391H70.0703V91.3125H73.1094C73.6979 91.3125 74.1745 91.2188 74.5391 91.0312C74.9036 90.8438 75.1693 90.5833 75.3359 90.25C75.5078 89.9167 75.5938 89.5365 75.5938 89.1094C75.5938 88.7188 75.5078 88.3516 75.3359 88.0078C75.1693 87.6641 74.9036 87.388 74.5391 87.1797C74.1745 86.9661 73.6979 86.8594 73.1094 86.8594H70.4219V97H68.9141V85.625H73.1094C73.9688 85.625 74.6953 85.7734 75.2891 86.0703C75.8828 86.3672 76.3333 86.7786 76.6406 87.3047C76.9479 87.8255 77.1016 88.4219 77.1016 89.0938C77.1016 89.8229 76.9479 90.4453 76.6406 90.9609C76.3333 91.4766 75.8828 91.8698 75.2891 92.1406C74.6953 92.4062 73.9688 92.5391 73.1094 92.5391ZM82.1875 97.1562C81.599 97.1562 81.0651 97.0573 80.5859 96.8594C80.112 96.6562 79.7031 96.3724 79.3594 96.0078C79.0208 95.6432 78.7604 95.2109 78.5781 94.7109C78.3958 94.2109 78.3047 93.6641 78.3047 93.0703V92.7422C78.3047 92.0547 78.4062 91.4427 78.6094 90.9062C78.8125 90.3646 79.0885 89.9062 79.4375 89.5312C79.7865 89.1562 80.1823 88.8724 80.625 88.6797C81.0677 88.487 81.526 88.3906 82 88.3906C82.6042 88.3906 83.125 88.4948 83.5625 88.7031C84.0052 88.9115 84.3672 89.2031 84.6484 89.5781C84.9297 89.9479 85.138 90.3854 85.2734 90.8906C85.4089 91.3906 85.4766 91.9375 85.4766 92.5312V93.1797H79.1641V92H84.0312V91.8906C84.0104 91.5156 83.9323 91.151 83.7969 90.7969C83.6667 90.4427 83.4583 90.151 83.1719 89.9219C82.8854 89.6927 82.4948 89.5781 82 89.5781C81.6719 89.5781 81.3698 89.6484 81.0938 89.7891C80.8177 89.9245 80.5807 90.1276 80.3828 90.3984C80.1849 90.6693 80.0312 91 79.9219 91.3906C79.8125 91.7812 79.7578 92.2318 79.7578 92.7422V93.0703C79.7578 93.4714 79.8125 93.849 79.9219 94.2031C80.0365 94.5521 80.2005 94.8594 80.4141 95.125C80.6328 95.3906 80.8958 95.599 81.2031 95.75C81.5156 95.901 81.8698 95.9766 82.2656 95.9766C82.776 95.9766 83.2083 95.8724 83.5625 95.6641C83.9167 95.4557 84.2266 95.1771 84.4922 94.8281L85.3672 95.5234C85.1849 95.7995 84.9531 96.0625 84.6719 96.3125C84.3906 96.5625 84.0443 96.7656 83.6328 96.9219C83.2266 97.0781 82.7448 97.1562 82.1875 97.1562ZM88.6094 89.875V97H87.1641V88.5469H88.5703L88.6094 89.875ZM91.25 88.5L91.2422 89.8438C91.1224 89.8177 91.0078 89.8021 90.8984 89.7969C90.7943 89.7865 90.6745 89.7812 90.5391 89.7812C90.2057 89.7812 89.9115 89.8333 89.6562 89.9375C89.401 90.0417 89.1849 90.1875 89.0078 90.375C88.8307 90.5625 88.6901 90.7865 88.5859 91.0469C88.487 91.3021 88.4219 91.5833 88.3906 91.8906L87.9844 92.125C87.9844 91.6146 88.0339 91.1354 88.1328 90.6875C88.237 90.2396 88.3958 89.8438 88.6094 89.5C88.8229 89.151 89.0938 88.8802 89.4219 88.6875C89.7552 88.4896 90.151 88.3906 90.6094 88.3906C90.7135 88.3906 90.8333 88.4036 90.9688 88.4297C91.1042 88.4505 91.1979 88.474 91.25 88.5ZM97.5078 94.7578C97.5078 94.5495 97.4609 94.3568 97.3672 94.1797C97.2786 93.9974 97.0938 93.8333 96.8125 93.6875C96.5365 93.5365 96.1198 93.4062 95.5625 93.2969C95.0938 93.1979 94.6693 93.0807 94.2891 92.9453C93.9141 92.8099 93.5938 92.6458 93.3281 92.4531C93.0677 92.2604 92.8672 92.0339 92.7266 91.7734C92.5859 91.513 92.5156 91.2083 92.5156 90.8594C92.5156 90.526 92.5885 90.2109 92.7344 89.9141C92.8854 89.6172 93.0964 89.3542 93.3672 89.125C93.6432 88.8958 93.974 88.7161 94.3594 88.5859C94.7448 88.4557 95.1745 88.3906 95.6484 88.3906C96.3255 88.3906 96.9036 88.5104 97.3828 88.75C97.862 88.9896 98.2292 89.3099 98.4844 89.7109C98.7396 90.1068 98.8672 90.5469 98.8672 91.0312H97.4219C97.4219 90.7969 97.3516 90.5703 97.2109 90.3516C97.0755 90.1276 96.875 89.9427 96.6094 89.7969C96.349 89.651 96.0286 89.5781 95.6484 89.5781C95.2474 89.5781 94.9219 89.6406 94.6719 89.7656C94.4271 89.8854 94.2474 90.0391 94.1328 90.2266C94.0234 90.4141 93.9688 90.612 93.9688 90.8203C93.9688 90.9766 93.9948 91.1172 94.0469 91.2422C94.1042 91.362 94.2031 91.474 94.3438 91.5781C94.4844 91.6771 94.6823 91.7708 94.9375 91.8594C95.1927 91.9479 95.5182 92.0365 95.9141 92.125C96.6068 92.2812 97.1771 92.4688 97.625 92.6875C98.0729 92.9062 98.4062 93.1745 98.625 93.4922C98.8438 93.8099 98.9531 94.1953 98.9531 94.6484C98.9531 95.0182 98.875 95.3568 98.7188 95.6641C98.5677 95.9714 98.3464 96.237 98.0547 96.4609C97.7682 96.6797 97.4245 96.8516 97.0234 96.9766C96.6276 97.0964 96.1823 97.1562 95.6875 97.1562C94.9427 97.1562 94.3125 97.0234 93.7969 96.7578C93.2812 96.4922 92.8906 96.1484 92.625 95.7266C92.3594 95.3047 92.2266 94.8594 92.2266 94.3906H93.6797C93.7005 94.7865 93.8151 95.1016 94.0234 95.3359C94.2318 95.5651 94.487 95.7292 94.7891 95.8281C95.0911 95.9219 95.3906 95.9688 95.6875 95.9688C96.0833 95.9688 96.4141 95.9167 96.6797 95.8125C96.9505 95.7083 97.1562 95.5651 97.2969 95.3828C97.4375 95.2005 97.5078 94.9922 97.5078 94.7578ZM100.469 92.8672V92.6875C100.469 92.0781 100.557 91.513 100.734 90.9922C100.911 90.4661 101.167 90.0104 101.5 89.625C101.833 89.2344 102.237 88.9323 102.711 88.7188C103.185 88.5 103.716 88.3906 104.305 88.3906C104.898 88.3906 105.432 88.5 105.906 88.7188C106.385 88.9323 106.792 89.2344 107.125 89.625C107.464 90.0104 107.721 90.4661 107.898 90.9922C108.076 91.513 108.164 92.0781 108.164 92.6875V92.8672C108.164 93.4766 108.076 94.0417 107.898 94.5625C107.721 95.0833 107.464 95.5391 107.125 95.9297C106.792 96.3151 106.388 96.6172 105.914 96.8359C105.445 97.0495 104.914 97.1562 104.32 97.1562C103.727 97.1562 103.193 97.0495 102.719 96.8359C102.245 96.6172 101.839 96.3151 101.5 95.9297C101.167 95.5391 100.911 95.0833 100.734 94.5625C100.557 94.0417 100.469 93.4766 100.469 92.8672ZM101.914 92.6875V92.8672C101.914 93.2891 101.964 93.6875 102.062 94.0625C102.161 94.4323 102.31 94.7604 102.508 95.0469C102.711 95.3333 102.964 95.5599 103.266 95.7266C103.568 95.888 103.919 95.9688 104.32 95.9688C104.716 95.9688 105.062 95.888 105.359 95.7266C105.661 95.5599 105.911 95.3333 106.109 95.0469C106.307 94.7604 106.456 94.4323 106.555 94.0625C106.659 93.6875 106.711 93.2891 106.711 92.8672V92.6875C106.711 92.2708 106.659 91.8776 106.555 91.5078C106.456 91.1328 106.305 90.8021 106.102 90.5156C105.904 90.224 105.654 89.9948 105.352 89.8281C105.055 89.6615 104.706 89.5781 104.305 89.5781C103.909 89.5781 103.56 89.6615 103.258 89.8281C102.961 89.9948 102.711 90.224 102.508 90.5156C102.31 90.8021 102.161 91.1328 102.062 91.5078C101.964 91.8776 101.914 92.2708 101.914 92.6875ZM111.422 90.3516V97H109.977V88.5469H111.344L111.422 90.3516ZM111.078 92.4531L110.477 92.4297C110.482 91.8516 110.568 91.3177 110.734 90.8281C110.901 90.3333 111.135 89.9036 111.438 89.5391C111.74 89.1745 112.099 88.8932 112.516 88.6953C112.938 88.4922 113.404 88.3906 113.914 88.3906C114.331 88.3906 114.706 88.4479 115.039 88.5625C115.372 88.6719 115.656 88.849 115.891 89.0938C116.13 89.3385 116.312 89.6562 116.438 90.0469C116.562 90.4323 116.625 90.9036 116.625 91.4609V97H115.172V91.4453C115.172 91.0026 115.107 90.6484 114.977 90.3828C114.846 90.112 114.656 89.9167 114.406 89.7969C114.156 89.6719 113.849 89.6094 113.484 89.6094C113.125 89.6094 112.797 89.6849 112.5 89.8359C112.208 89.987 111.956 90.1953 111.742 90.4609C111.534 90.7266 111.37 91.0312 111.25 91.375C111.135 91.7135 111.078 92.0729 111.078 92.4531ZM126.086 97H123.711L123.727 95.7734H126.086C126.898 95.7734 127.576 95.6042 128.117 95.2656C128.659 94.9219 129.065 94.4427 129.336 93.8281C129.612 93.2083 129.75 92.4844 129.75 91.6562V90.9609C129.75 90.3099 129.672 89.7318 129.516 89.2266C129.359 88.7161 129.13 88.2865 128.828 87.9375C128.526 87.5833 128.156 87.3151 127.719 87.1328C127.286 86.9505 126.789 86.8594 126.227 86.8594H123.664V85.625H126.227C126.971 85.625 127.651 85.75 128.266 86C128.88 86.2448 129.409 86.6016 129.852 87.0703C130.299 87.5339 130.643 88.0964 130.883 88.7578C131.122 89.4141 131.242 90.1536 131.242 90.9766V91.6562C131.242 92.4792 131.122 93.2214 130.883 93.8828C130.643 94.5391 130.297 95.099 129.844 95.5625C129.396 96.026 128.854 96.3828 128.219 96.6328C127.589 96.8776 126.878 97 126.086 97ZM124.516 85.625V97H123.008V85.625H124.516ZM136.797 97.1562C136.208 97.1562 135.674 97.0573 135.195 96.8594C134.721 96.6562 134.312 96.3724 133.969 96.0078C133.63 95.6432 133.37 95.2109 133.188 94.7109C133.005 94.2109 132.914 93.6641 132.914 93.0703V92.7422C132.914 92.0547 133.016 91.4427 133.219 90.9062C133.422 90.3646 133.698 89.9062 134.047 89.5312C134.396 89.1562 134.792 88.8724 135.234 88.6797C135.677 88.487 136.135 88.3906 136.609 88.3906C137.214 88.3906 137.734 88.4948 138.172 88.7031C138.615 88.9115 138.977 89.2031 139.258 89.5781C139.539 89.9479 139.747 90.3854 139.883 90.8906C140.018 91.3906 140.086 91.9375 140.086 92.5312V93.1797H133.773V92H138.641V91.8906C138.62 91.5156 138.542 91.151 138.406 90.7969C138.276 90.4427 138.068 90.151 137.781 89.9219C137.495 89.6927 137.104 89.5781 136.609 89.5781C136.281 89.5781 135.979 89.6484 135.703 89.7891C135.427 89.9245 135.19 90.1276 134.992 90.3984C134.794 90.6693 134.641 91 134.531 91.3906C134.422 91.7812 134.367 92.2318 134.367 92.7422V93.0703C134.367 93.4714 134.422 93.849 134.531 94.2031C134.646 94.5521 134.81 94.8594 135.023 95.125C135.242 95.3906 135.505 95.599 135.812 95.75C136.125 95.901 136.479 95.9766 136.875 95.9766C137.385 95.9766 137.818 95.8724 138.172 95.6641C138.526 95.4557 138.836 95.1771 139.102 94.8281L139.977 95.5234C139.794 95.7995 139.562 96.0625 139.281 96.3125C139 96.5625 138.654 96.7656 138.242 96.9219C137.836 97.0781 137.354 97.1562 136.797 97.1562ZM145.312 88.5469V89.6562H140.742V88.5469H145.312ZM142.289 86.4922H143.734V94.9062C143.734 95.1927 143.779 95.4089 143.867 95.5547C143.956 95.7005 144.07 95.7969 144.211 95.8438C144.352 95.8906 144.503 95.9141 144.664 95.9141C144.784 95.9141 144.909 95.9036 145.039 95.8828C145.174 95.8568 145.276 95.8359 145.344 95.8203L145.352 97C145.237 97.0365 145.086 97.0703 144.898 97.1016C144.716 97.138 144.495 97.1562 144.234 97.1562C143.88 97.1562 143.555 97.0859 143.258 96.9453C142.961 96.8047 142.724 96.5703 142.547 96.2422C142.375 95.9089 142.289 95.4609 142.289 94.8984V86.4922ZM151.992 95.5547V91.2031C151.992 90.8698 151.924 90.5807 151.789 90.3359C151.659 90.0859 151.461 89.8932 151.195 89.7578C150.93 89.6224 150.602 89.5547 150.211 89.5547C149.846 89.5547 149.526 89.6172 149.25 89.7422C148.979 89.8672 148.766 90.0312 148.609 90.2344C148.458 90.4375 148.383 90.6562 148.383 90.8906H146.938C146.938 90.5885 147.016 90.2891 147.172 89.9922C147.328 89.6953 147.552 89.4271 147.844 89.1875C148.141 88.9427 148.495 88.75 148.906 88.6094C149.323 88.4635 149.786 88.3906 150.297 88.3906C150.911 88.3906 151.453 88.4948 151.922 88.7031C152.396 88.9115 152.766 89.2266 153.031 89.6484C153.302 90.0651 153.438 90.5885 153.438 91.2188V95.1562C153.438 95.4375 153.461 95.737 153.508 96.0547C153.56 96.3724 153.635 96.6458 153.734 96.875V97H152.227C152.154 96.8333 152.096 96.612 152.055 96.3359C152.013 96.0547 151.992 95.7943 151.992 95.5547ZM152.242 91.875L152.258 92.8906H150.797C150.385 92.8906 150.018 92.9245 149.695 92.9922C149.372 93.0547 149.102 93.151 148.883 93.2812C148.664 93.4115 148.497 93.5755 148.383 93.7734C148.268 93.9661 148.211 94.1927 148.211 94.4531C148.211 94.7188 148.271 94.9609 148.391 95.1797C148.51 95.3984 148.69 95.5729 148.93 95.7031C149.174 95.8281 149.474 95.8906 149.828 95.8906C150.271 95.8906 150.661 95.7969 151 95.6094C151.339 95.4219 151.607 95.1927 151.805 94.9219C152.008 94.651 152.117 94.388 152.133 94.1328L152.75 94.8281C152.714 95.0469 152.615 95.2891 152.453 95.5547C152.292 95.8203 152.076 96.0755 151.805 96.3203C151.539 96.5599 151.221 96.7604 150.852 96.9219C150.487 97.0781 150.076 97.1562 149.617 97.1562C149.044 97.1562 148.542 97.0443 148.109 96.8203C147.682 96.5964 147.349 96.2969 147.109 95.9219C146.875 95.5417 146.758 95.1172 146.758 94.6484C146.758 94.1953 146.846 93.7969 147.023 93.4531C147.201 93.1042 147.456 92.8151 147.789 92.5859C148.122 92.3516 148.523 92.1745 148.992 92.0547C149.461 91.9349 149.984 91.875 150.562 91.875H152.242ZM157.281 88.5469V97H155.828V88.5469H157.281ZM155.719 86.3047C155.719 86.0703 155.789 85.8724 155.93 85.7109C156.076 85.5495 156.289 85.4688 156.57 85.4688C156.846 85.4688 157.057 85.5495 157.203 85.7109C157.354 85.8724 157.43 86.0703 157.43 86.3047C157.43 86.5286 157.354 86.7214 157.203 86.8828C157.057 87.0391 156.846 87.1172 156.57 87.1172C156.289 87.1172 156.076 87.0391 155.93 86.8828C155.789 86.7214 155.719 86.5286 155.719 86.3047ZM161.172 85V97H159.719V85H161.172ZM168.414 94.7578C168.414 94.5495 168.367 94.3568 168.273 94.1797C168.185 93.9974 168 93.8333 167.719 93.6875C167.443 93.5365 167.026 93.4062 166.469 93.2969C166 93.1979 165.576 93.0807 165.195 92.9453C164.82 92.8099 164.5 92.6458 164.234 92.4531C163.974 92.2604 163.773 92.0339 163.633 91.7734C163.492 91.513 163.422 91.2083 163.422 90.8594C163.422 90.526 163.495 90.2109 163.641 89.9141C163.792 89.6172 164.003 89.3542 164.273 89.125C164.549 88.8958 164.88 88.7161 165.266 88.5859C165.651 88.4557 166.081 88.3906 166.555 88.3906C167.232 88.3906 167.81 88.5104 168.289 88.75C168.768 88.9896 169.135 89.3099 169.391 89.7109C169.646 90.1068 169.773 90.5469 169.773 91.0312H168.328C168.328 90.7969 168.258 90.5703 168.117 90.3516C167.982 90.1276 167.781 89.9427 167.516 89.7969C167.255 89.651 166.935 89.5781 166.555 89.5781C166.154 89.5781 165.828 89.6406 165.578 89.7656C165.333 89.8854 165.154 90.0391 165.039 90.2266C164.93 90.4141 164.875 90.612 164.875 90.8203C164.875 90.9766 164.901 91.1172 164.953 91.2422C165.01 91.362 165.109 91.474 165.25 91.5781C165.391 91.6771 165.589 91.7708 165.844 91.8594C166.099 91.9479 166.424 92.0365 166.82 92.125C167.513 92.2812 168.083 92.4688 168.531 92.6875C168.979 92.9062 169.312 93.1745 169.531 93.4922C169.75 93.8099 169.859 94.1953 169.859 94.6484C169.859 95.0182 169.781 95.3568 169.625 95.6641C169.474 95.9714 169.253 96.237 168.961 96.4609C168.674 96.6797 168.331 96.8516 167.93 96.9766C167.534 97.0964 167.089 97.1562 166.594 97.1562C165.849 97.1562 165.219 97.0234 164.703 96.7578C164.188 96.4922 163.797 96.1484 163.531 95.7266C163.266 95.3047 163.133 94.8594 163.133 94.3906H164.586C164.607 94.7865 164.721 95.1016 164.93 95.3359C165.138 95.5651 165.393 95.7292 165.695 95.8281C165.997 95.9219 166.297 95.9688 166.594 95.9688C166.99 95.9688 167.32 95.9167 167.586 95.8125C167.857 95.7083 168.062 95.5651 168.203 95.3828C168.344 95.2005 168.414 94.9922 168.414 94.7578Z" fill="#6C757D"/>
<path d="M19.3203 125.625H23.0859C23.9401 125.625 24.6615 125.755 25.25 126.016C25.8438 126.276 26.2943 126.661 26.6016 127.172C26.9141 127.677 27.0703 128.299 27.0703 129.039C27.0703 129.56 26.9635 130.036 26.75 130.469C26.5417 130.896 26.2396 131.26 25.8438 131.562C25.4531 131.859 24.9844 132.081 24.4375 132.227L24.0156 132.391H20.4766L20.4609 131.164H23.1328C23.6745 131.164 24.125 131.07 24.4844 130.883C24.8438 130.69 25.1146 130.432 25.2969 130.109C25.4792 129.786 25.5703 129.43 25.5703 129.039C25.5703 128.602 25.4844 128.219 25.3125 127.891C25.1406 127.562 24.8698 127.31 24.5 127.133C24.1354 126.951 23.6641 126.859 23.0859 126.859H20.8281V137H19.3203V125.625ZM25.9688 137L23.2031 131.844L24.7734 131.836L27.5781 136.906V137H25.9688ZM32.4688 137.156C31.8802 137.156 31.3464 137.057 30.8672 136.859C30.3932 136.656 29.9844 136.372 29.6406 136.008C29.3021 135.643 29.0417 135.211 28.8594 134.711C28.6771 134.211 28.5859 133.664 28.5859 133.07V132.742C28.5859 132.055 28.6875 131.443 28.8906 130.906C29.0938 130.365 29.3698 129.906 29.7188 129.531C30.0677 129.156 30.4635 128.872 30.9062 128.68C31.349 128.487 31.8073 128.391 32.2812 128.391C32.8854 128.391 33.4062 128.495 33.8438 128.703C34.2865 128.911 34.6484 129.203 34.9297 129.578C35.2109 129.948 35.4193 130.385 35.5547 130.891C35.6901 131.391 35.7578 131.938 35.7578 132.531V133.18H29.4453V132H34.3125V131.891C34.2917 131.516 34.2135 131.151 34.0781 130.797C33.9479 130.443 33.7396 130.151 33.4531 129.922C33.1667 129.693 32.776 129.578 32.2812 129.578C31.9531 129.578 31.651 129.648 31.375 129.789C31.099 129.924 30.862 130.128 30.6641 130.398C30.4661 130.669 30.3125 131 30.2031 131.391C30.0938 131.781 30.0391 132.232 30.0391 132.742V133.07C30.0391 133.471 30.0938 133.849 30.2031 134.203C30.3177 134.552 30.4818 134.859 30.6953 135.125C30.9141 135.391 31.1771 135.599 31.4844 135.75C31.7969 135.901 32.151 135.977 32.5469 135.977C33.0573 135.977 33.4896 135.872 33.8438 135.664C34.1979 135.456 34.5078 135.177 34.7734 134.828L35.6484 135.523C35.4661 135.799 35.2344 136.062 34.9531 136.312C34.6719 136.562 34.3255 136.766 33.9141 136.922C33.5078 137.078 33.026 137.156 32.4688 137.156ZM39.9062 135.695L42.2188 128.547H43.6953L40.6562 137H39.6875L39.9062 135.695ZM37.9766 128.547L40.3594 135.734L40.5234 137H39.5547L36.4922 128.547H37.9766ZM46.6562 128.547V137H45.2031V128.547H46.6562ZM45.0938 126.305C45.0938 126.07 45.1641 125.872 45.3047 125.711C45.4505 125.549 45.6641 125.469 45.9453 125.469C46.2214 125.469 46.4323 125.549 46.5781 125.711C46.7292 125.872 46.8047 126.07 46.8047 126.305C46.8047 126.529 46.7292 126.721 46.5781 126.883C46.4323 127.039 46.2214 127.117 45.9453 127.117C45.6641 127.117 45.4505 127.039 45.3047 126.883C45.1641 126.721 45.0938 126.529 45.0938 126.305ZM52.4844 137.156C51.8958 137.156 51.362 137.057 50.8828 136.859C50.4089 136.656 50 136.372 49.6562 136.008C49.3177 135.643 49.0573 135.211 48.875 134.711C48.6927 134.211 48.6016 133.664 48.6016 133.07V132.742C48.6016 132.055 48.7031 131.443 48.9062 130.906C49.1094 130.365 49.3854 129.906 49.7344 129.531C50.0833 129.156 50.4792 128.872 50.9219 128.68C51.3646 128.487 51.8229 128.391 52.2969 128.391C52.901 128.391 53.4219 128.495 53.8594 128.703C54.3021 128.911 54.6641 129.203 54.9453 129.578C55.2266 129.948 55.4349 130.385 55.5703 130.891C55.7057 131.391 55.7734 131.938 55.7734 132.531V133.18H49.4609V132H54.3281V131.891C54.3073 131.516 54.2292 131.151 54.0938 130.797C53.9635 130.443 53.7552 130.151 53.4688 129.922C53.1823 129.693 52.7917 129.578 52.2969 129.578C51.9688 129.578 51.6667 129.648 51.3906 129.789C51.1146 129.924 50.8776 130.128 50.6797 130.398C50.4818 130.669 50.3281 131 50.2188 131.391C50.1094 131.781 50.0547 132.232 50.0547 132.742V133.07C50.0547 133.471 50.1094 133.849 50.2188 134.203C50.3333 134.552 50.4974 134.859 50.7109 135.125C50.9297 135.391 51.1927 135.599 51.5 135.75C51.8125 135.901 52.1667 135.977 52.5625 135.977C53.0729 135.977 53.5052 135.872 53.8594 135.664C54.2135 135.456 54.5234 135.177 54.7891 134.828L55.6641 135.523C55.4818 135.799 55.25 136.062 54.9688 136.312C54.6875 136.562 54.3411 136.766 53.9297 136.922C53.5234 137.078 53.0417 137.156 52.4844 137.156ZM59.6016 135.5L61.7734 128.547H62.7266L62.5391 129.93L60.3281 137H59.3984L59.6016 135.5ZM58.1406 128.547L59.9922 135.578L60.125 137H59.1484L56.6953 128.547H58.1406ZM64.8047 135.523L66.5703 128.547H68.0078L65.5547 137H64.5859L64.8047 135.523ZM62.9375 128.547L65.0625 135.383L65.3047 137H64.3828L62.1094 129.914L61.9219 128.547H62.9375Z" fill="#6C757D"/>
<rect x="1" y="7" width="10" height="10" rx="5" fill="white" stroke="#28A745" stroke-width="2"/>
<rect x="2" y="48" width="8" height="8" rx="4" fill="#D9D9D9"/>
<rect x="2" y="88" width="8" height="8" rx="4" fill="#D9D9D9"/>
<rect x="2" y="128" width="8" height="8" rx="4" fill="#D9D9D9"/>
<path d="M6 20V44" stroke="#D3D7DC"/>
<path d="M6 60V84" stroke="#D3D7DC"/>
<path d="M6 100V124" stroke="#D3D7DC"/>
</svg>
